# xmcd CD database file
#
# Track frame offsets:
#	150
#	19046
#	35155
#	54803
#	72867
#	88184
#	106363
#	126566
#	153018
#	168995
#	195325
#	213472
#	230059
#	249494
#	280238
#	302210
#	318536
#
# Disc length: 4592 seconds
#
# Revision: 2
# Processed by: cddbd v1.4b41PL1 Copyright (c) Steve Scherf et al.
# Submitted via: Feurio! 1.52 - http://www.feurio.com
#
DISCID=ee11ee11
DTITLE=Various Artist - Kuschel Rock 13 [CD2]
DYEAR=1900
DGENRE=
TTITLE0=Various Artist - Madonna - The Power Of Good-Bye (Album Version)
TTITLE1=Various Artist - Backstreet Boys - I Want It That Way
TTITLE2=Various Artist - Whitney Houston - You'll Never Stand Alone
TTITLE3=Various Artist - Sasha - If You Believe (Radio Mix)
TTITLE4=Various Artist - Emilia - Big Big World
TTITLE5=Various Artist - Eros Ramazzotti - Adesso Tu
TTITLE6=Various Artist - Amanda Marshall - Believe In You
TTITLE7=Various Artist - Bon Jovi - Always
TTITLE8=Various Artist - B*witched - Blame It On The Weatherman
TTITLE9=Various Artist - Boyz Ii Men - End Of The Road
TTITLE10=Various Artist - Brandy and Monica - The Boy Is Mine (Radio Edit Without Intro)
TTITLE11=Various Artist - Malaya - Tell Me Why (Smooth Radio Edit)
TTITLE12=Various Artist - Janet Jackson - Every Time
TTITLE13=Various Artist - George Michael - Jesus To A Child
TTITLE14=Various Artist - Another Level - From The Heart (International Version)
TTITLE15=Various Artist - Jessica - How Will I Know (Who You Are)
TTITLE16=Various Artist - Michael Jackson - You Are Not Alone
EXTD=
EXTT0=
EXTT1=
EXTT2=
EXTT3=
EXTT4=
EXTT5=
EXTT6=
EXTT7=
EXTT8=
EXTT9=
EXTT10=
EXTT11=
EXTT12=
EXTT13=
EXTT14=
EXTT15=
EXTT16=
PLAYORDER=
